<svg width="40" height="40" viewBox="0 0 40 40" fill="none" xmlns="http://www.w3.org/2000/svg">
<path d="M20 23.3334C21.8409 23.3334 23.3333 21.841 23.3333 20.0001C23.3333 18.1591 21.8409 16.6667 20 16.6667C18.159 16.6667 16.6667 18.1591 16.6667 20.0001C16.6667 21.841 18.159 23.3334 20 23.3334Z" stroke="white" stroke-width="2.5" stroke-linecap="round" stroke-linejoin="round"/>
<path d="M27.0667 12.9332C27.9964 13.862 28.734 14.9648 29.2373 16.1788C29.7405 17.3928 29.9995 18.6941 29.9995 20.0082C29.9995 21.3224 29.7405 22.6236 29.2373 23.8376C28.734 25.0516 27.9964 26.1545 27.0667 27.0832M12.9333 27.0666C12.0036 26.1378 11.266 25.0349 10.7627 23.821C10.2595 22.607 10.0005 21.3057 10.0005 19.9916C10.0005 18.6774 10.2595 17.3761 10.7627 16.1621C11.266 14.9482 12.0036 13.8453 12.9333 12.9166M31.7833 8.21655C34.9078 11.342 36.6631 15.5805 36.6631 19.9999C36.6631 24.4193 34.9078 28.6578 31.7833 31.7832M8.21667 31.7832C5.09215 28.6578 3.33689 24.4193 3.33689 19.9999C3.33689 15.5805 5.09215 11.342 8.21667 8.21655" stroke="white" stroke-width="2.5" stroke-linecap="round" stroke-linejoin="round"/>
</svg>
