<svg preserveAspectRatio="none" viewBox="0 0 327 549" fill="none" xmlns="http://www.w3.org/2000/svg">
<path d="M15 105.879H215C236.217 105.879 256.566 114.142 271.569 128.85C286.571 143.558 295 163.507 295 184.307V549H95C73.7827 549 53.4344 540.737 38.4315 526.029C23.4285 511.321 15 491.372 15 470.571L15 105.879Z" fill="#A3A4A4"/>
<path d="M6 96.075H230C251.217 96.075 271.566 104.338 286.569 119.046C301.571 133.754 310 153.703 310 174.504V538.216H86C64.7827 538.216 44.4344 529.953 29.4315 515.245C14.4285 500.537 6 480.588 6 459.787L6 96.075Z" fill="#B9B9B9"/>
<path d="M0 0H247C268.217 0 288.566 8.26299 303.569 22.9712C318.571 37.6794 327 57.628 327 78.4286V528.412H80C58.7827 528.412 38.4344 520.149 23.4315 505.441C8.42855 490.733 0 470.784 0 449.984L0 0Z" fill="white"/>
</svg>
