<svg id="Layer_1" data-name="Layer 1" xmlns="http://www.w3.org/2000/svg" viewBox="0 0 1000 1000"><defs><style>.cls-1{fill:#293578;}.cls-1,.cls-10,.cls-11,.cls-12,.cls-2,.cls-3,.cls-4,.cls-5,.cls-6,.cls-7,.cls-8,.cls-9{stroke:#000;stroke-miterlimit:10;stroke-width:4px;}.cls-2{fill:#34619b;}.cls-3{fill:#469a65;}.cls-4{fill:#a7c762;}.cls-5{fill:#e5ab4b;}.cls-6{fill:#d87f3f;}.cls-7{fill:#c73a36;}.cls-8{fill:#9d2f64;}.cls-9{fill:#cf5e3a;}.cls-10{fill:#f7ec5c;}.cls-11{fill:#4b96a5;}.cls-12{fill:#4f2f75;}</style></defs><path class="cls-1" d="M787,214,500.37,500.63l105-391.92A407.53,407.53,0,0,1,787,214Z"/><path class="cls-2" d="M891.44,395.32l.13.49L500.37,500.63,787,214A403.57,403.57,0,0,1,891.44,395.32Z"/><path class="cls-3" d="M891.45,605.42a407.49,407.49,0,0,1-104.79,181.5L500.37,500.63Z"/><path class="cls-4" d="M786.66,786.92A403.67,403.67,0,0,1,605.19,891.83L500.37,500.63Z"/><path class="cls-5" d="M500.37,500.63,395.45,892.2a407.47,407.47,0,0,1-182-104.67Z"/><path class="cls-6" d="M500.37,500.63l-286.9,286.9A403.41,403.41,0,0,1,108.2,605.71Z"/><path class="cls-7" d="M500.37,500.63,108,395.49A407.31,407.31,0,0,1,213.11,213.37Z"/><path class="cls-8" d="M395.29,108.46,500.37,500.63,213.11,213.37a403.49,403.49,0,0,1,181.7-104.78Z"/><path class="cls-9" d="M500.37,500.63,108.2,605.71l-.13-.48a403.58,403.58,0,0,1-.1-209.74Z"/><path class="cls-10" d="M500.37,500.63l104.82,391.2-.48.13a403.7,403.7,0,0,1-209.26.24Z"/><path class="cls-11" d="M891.57,395.81a403.57,403.57,0,0,1-.12,209.61L500.37,500.63Z"/><path class="cls-12" d="M605.38,108.71l-105,391.92L395.29,108.46A403.45,403.45,0,0,1,605.38,108.71Z"/></svg>